# Wavefront OBJ file automatically generated by Tiled2Unity

# Vertices (Count = 293)
v -1216 -32 0
v -1248 -32 0
v -1248 0 0
v -1216 0 0
v -1216 -64 0
v -1248 -64 0
v -1216 -96 0
v -1248 -96 0
v -1216 -128 0
v -1248 -128 0
v -1216 -160 0
v -1248 -160 0
v -1216 -192 0
v -1248 -192 0
v -1216 -224 0
v -1248 -224 0
v -1216 -256 0
v -1248 -256 0
v -1216 -288 0
v -1248 -288 0
v -1216 -320 0
v -1248 -320 0
v -1216 -352 0
v -1248 -352 0
v -1216 -384 0
v -1248 -384 0
v -1216 -416 0
v -1248 -416 0
v -1216 -448 0
v -1248 -448 0
v -1216 -480 0
v -1248 -480 0
v -1216 -512 0
v -1248 -512 0
v -1216 -544 0
v -1248 -544 0
v -1216 -576 0
v -1248 -576 0
v -1216 -608 0
v -1248 -608 0
v -1216 -640 0
v -1248 -640 0
v -1216 -672 0
v -1248 -672 0
v -1216 -704 0
v -1248 -704 0
v -1216 -736 0
v -1248 -736 0
v -1216 -768 0
v -1248 -768 0
v -1216 -800 0
v -1248 -800 0
v -1216 -832 0
v -1248 -832 0
v -1216 -864 0
v -1248 -864 0
v -1216 -896 0
v -1248 -896 0
v -1216 -928 0
v -1248 -928 0
v -416 -960 0
v -448 -960 0
v -448 -928 0
v -416 -928 0
v -480 -960 0
v -480 -928 0
v -512 -960 0
v -512 -928 0
v -544 -960 0
v -544 -928 0
v -576 -960 0
v -576 -928 0
v -608 -960 0
v -608 -928 0
v -640 -960 0
v -640 -928 0
v -672 -960 0
v -672 -928 0
v -704 -960 0
v -704 -928 0
v -736 -960 0
v -736 -928 0
v -768 -960 0
v -768 -928 0
v -800 -960 0
v -800 -928 0
v -832 -960 0
v -832 -928 0
v -864 -960 0
v -864 -928 0
v -896 -960 0
v -896 -928 0
v -928 -960 0
v -928 -928 0
v -960 -960 0
v -960 -928 0
v -992 -960 0
v -992 -928 0
v -1024 -960 0
v -1024 -928 0
v -1056 -960 0
v -1056 -928 0
v -1088 -960 0
v -1088 -928 0
v -1216 -960 0
v -1248 -960 0
v -384 -992 0
v -416 -992 0
v -384 -960 0
v -448 -992 0
v -480 -992 0
v -512 -992 0
v -544 -992 0
v -576 -992 0
v -608 -992 0
v -640 -992 0
v -672 -992 0
v -704 -992 0
v -736 -992 0
v -768 -992 0
v -800 -992 0
v -832 -992 0
v -864 -992 0
v -896 -992 0
v -928 -992 0
v -960 -992 0
v -992 -992 0
v -1024 -992 0
v -1056 -992 0
v -1088 -992 0
v -352 -1024 0
v -384 -1024 0
v -352 -992 0
v -416 -1024 0
v -448 -1024 0
v -480 -1024 0
v -512 -1024 0
v -544 -1024 0
v -576 -1024 0
v -608 -1024 0
v -640 -1024 0
v -672 -1024 0
v -704 -1024 0
v -736 -1024 0
v -768 -1024 0
v -800 -1024 0
v -832 -1024 0
v -864 -1024 0
v -896 -1024 0
v -928 -1024 0
v -960 -1024 0
v -992 -1024 0
v -1024 -1024 0
v -1056 -1024 0
v -1088 -1024 0
v -320 -1056 0
v -352 -1056 0
v -320 -1024 0
v -384 -1056 0
v -416 -1056 0
v -448 -1056 0
v -480 -1056 0
v -512 -1056 0
v -544 -1056 0
v -576 -1056 0
v -608 -1056 0
v -640 -1056 0
v -672 -1056 0
v -704 -1056 0
v -736 -1056 0
v -768 -1056 0
v -800 -1056 0
v -832 -1056 0
v -864 -1056 0
v -896 -1056 0
v -928 -1056 0
v -960 -1056 0
v -992 -1056 0
v -1024 -1056 0
v -1056 -1056 0
v -1088 -1056 0
v -288 -1088 0
v -320 -1088 0
v -288 -1056 0
v -352 -1088 0
v -384 -1088 0
v -416 -1088 0
v -448 -1088 0
v -480 -1088 0
v -512 -1088 0
v -544 -1088 0
v -576 -1088 0
v -608 -1088 0
v -640 -1088 0
v -672 -1088 0
v -704 -1088 0
v -736 -1088 0
v -768 -1088 0
v -800 -1088 0
v -832 -1088 0
v -864 -1088 0
v -896 -1088 0
v -928 -1088 0
v -960 -1088 0
v -992 -1088 0
v -1024 -1088 0
v -1056 -1088 0
v -1088 -1088 0
v -256 -1120 0
v -288 -1120 0
v -256 -1088 0
v -320 -1120 0
v -352 -1120 0
v -384 -1120 0
v -416 -1120 0
v -448 -1120 0
v -480 -1120 0
v -512 -1120 0
v -544 -1120 0
v -576 -1120 0
v -608 -1120 0
v -640 -1120 0
v -672 -1120 0
v -704 -1120 0
v -736 -1120 0
v -768 -1120 0
v -800 -1120 0
v -832 -1120 0
v -864 -1120 0
v -896 -1120 0
v -928 -1120 0
v -960 -1120 0
v -992 -1120 0
v -1024 -1120 0
v -1056 -1120 0
v -1088 -1120 0
v -224 -1152 0
v -256 -1152 0
v -224 -1120 0
v -288 -1152 0
v -320 -1152 0
v -352 -1152 0
v -384 -1152 0
v -416 -1152 0
v -448 -1152 0
v -480 -1152 0
v -512 -1152 0
v -544 -1152 0
v -576 -1152 0
v -608 -1152 0
v -640 -1152 0
v -672 -1152 0
v -704 -1152 0
v -736 -1152 0
v -768 -1152 0
v -800 -1152 0
v -832 -1152 0
v -864 -1152 0
v -896 -1152 0
v -928 -1152 0
v -960 -1152 0
v -992 -1152 0
v -1024 -1152 0
v -1056 -1152 0
v -1088 -1152 0
v -224 -1184 0
v -256 -1184 0
v -288 -1184 0
v -320 -1184 0
v -352 -1184 0
v -384 -1184 0
v -416 -1184 0
v -448 -1184 0
v -480 -1184 0
v -512 -1184 0
v -544 -1184 0
v -576 -1184 0
v -608 -1184 0
v -640 -1184 0
v -672 -1184 0
v -704 -1184 0
v -736 -1184 0
v -768 -1184 0
v -800 -1184 0
v -832 -1184 0
v -864 -1184 0
v -896 -1184 0
v -928 -1184 0
v -960 -1184 0
v -992 -1184 0
v -1024 -1184 0
v -1056 -1184 0
v -1088 -1184 0

# Texture Coorindates (Count = 28)
vt 0.0001220703 0.5001221
vt 0.04714528 0.5001221
vt 0.04714528 0.599878
vt 0.0001220703 0.599878
vt 0.04738943 0.7001221
vt 0.09441264 0.7001221
vt 0.09441264 0.7998779
vt 0.04738943 0.7998779
vt 0.0001220703 0.7001221
vt 0.04714528 0.7001221
vt 0.04714528 0.7998779
vt 0.0001220703 0.7998779
vt 0.09465678 0.7001221
vt 0.14168 0.7001221
vt 0.14168 0.7998779
vt 0.09465678 0.7998779
vt 0.0001220703 0.8001221
vt 0.04714528 0.8001221
vt 0.04714528 0.8998779
vt 0.0001220703 0.8998779
vt 0.04738943 0.8001221
vt 0.09441264 0.8001221
vt 0.09441264 0.8998779
vt 0.04738943 0.8998779
vt 0.09465678 0.8001221
vt 0.14168 0.8001221
vt 0.14168 0.8998779
vt 0.09465678 0.8998779

# Normal
vn 0 0 -1

# Groups (Count = 1)
g mesh_[00]_[01]
f  1/1/1  2/2/1  3/3/1  4/4/1 
f  5/1/1  6/2/1  2/3/1  1/4/1 
f  7/1/1  8/2/1  6/3/1  5/4/1 
f  9/1/1  10/2/1  8/3/1  7/4/1 
f  11/1/1  12/2/1  10/3/1  9/4/1 
f  13/1/1  14/2/1  12/3/1  11/4/1 
f  15/1/1  16/2/1  14/3/1  13/4/1 
f  17/1/1  18/2/1  16/3/1  15/4/1 
f  19/1/1  20/2/1  18/3/1  17/4/1 
f  21/1/1  22/2/1  20/3/1  19/4/1 
f  23/1/1  24/2/1  22/3/1  21/4/1 
f  25/1/1  26/2/1  24/3/1  23/4/1 
f  27/1/1  28/2/1  26/3/1  25/4/1 
f  29/1/1  30/2/1  28/3/1  27/4/1 
f  31/1/1  32/2/1  30/3/1  29/4/1 
f  33/1/1  34/2/1  32/3/1  31/4/1 
f  35/1/1  36/2/1  34/3/1  33/4/1 
f  37/1/1  38/2/1  36/3/1  35/4/1 
f  39/1/1  40/2/1  38/3/1  37/4/1 
f  41/1/1  42/2/1  40/3/1  39/4/1 
f  43/1/1  44/2/1  42/3/1  41/4/1 
f  45/1/1  46/2/1  44/3/1  43/4/1 
f  47/1/1  48/2/1  46/3/1  45/4/1 
f  49/1/1  50/2/1  48/3/1  47/4/1 
f  51/1/1  52/2/1  50/3/1  49/4/1 
f  53/1/1  54/2/1  52/3/1  51/4/1 
f  55/1/1  56/2/1  54/3/1  53/4/1 
f  57/1/1  58/2/1  56/3/1  55/4/1 
f  59/1/1  60/2/1  58/3/1  57/4/1 
f  61/1/1  62/2/1  63/3/1  64/4/1 
f  62/1/1  65/2/1  66/3/1  63/4/1 
f  65/1/1  67/2/1  68/3/1  66/4/1 
f  67/1/1  69/2/1  70/3/1  68/4/1 
f  69/1/1  71/2/1  72/3/1  70/4/1 
f  71/1/1  73/2/1  74/3/1  72/4/1 
f  73/1/1  75/2/1  76/3/1  74/4/1 
f  75/1/1  77/2/1  78/3/1  76/4/1 
f  77/1/1  79/2/1  80/3/1  78/4/1 
f  79/1/1  81/2/1  82/3/1  80/4/1 
f  81/1/1  83/2/1  84/3/1  82/4/1 
f  83/1/1  85/2/1  86/3/1  84/4/1 
f  85/1/1  87/2/1  88/3/1  86/4/1 
f  87/1/1  89/2/1  90/3/1  88/4/1 
f  89/1/1  91/2/1  92/3/1  90/4/1 
f  91/1/1  93/2/1  94/3/1  92/4/1 
f  93/1/1  95/2/1  96/3/1  94/4/1 
f  95/1/1  97/2/1  98/3/1  96/4/1 
f  97/1/1  99/2/1  100/3/1  98/4/1 
f  99/1/1  101/2/1  102/3/1  100/4/1 
f  101/1/1  103/2/1  104/3/1  102/4/1 
f  105/1/1  106/2/1  60/3/1  59/4/1 
f  107/1/1  108/2/1  61/3/1  109/4/1 
f  108/1/1  110/2/1  62/3/1  61/4/1 
f  110/5/1  111/6/1  65/7/1  62/8/1 
f  111/9/1  112/10/1  67/11/1  65/12/1 
f  112/5/1  113/6/1  69/7/1  67/8/1 
f  113/9/1  114/10/1  71/11/1  69/12/1 
f  114/5/1  115/6/1  73/7/1  71/8/1 
f  115/13/1  116/14/1  75/15/1  73/16/1 
f  116/9/1  117/10/1  77/11/1  75/12/1 
f  117/5/1  118/6/1  79/7/1  77/8/1 
f  118/13/1  119/14/1  81/15/1  79/16/1 
f  119/9/1  120/10/1  83/11/1  81/12/1 
f  120/5/1  121/6/1  85/7/1  83/8/1 
f  121/13/1  122/14/1  87/15/1  85/16/1 
f  122/9/1  123/10/1  89/11/1  87/12/1 
f  123/5/1  124/6/1  91/7/1  89/8/1 
f  124/9/1  125/10/1  93/11/1  91/12/1 
f  125/9/1  126/10/1  95/11/1  93/12/1 
f  126/17/1  127/18/1  97/19/1  95/20/1 
f  127/9/1  128/10/1  99/11/1  97/12/1 
f  128/5/1  129/6/1  101/7/1  99/8/1 
f  129/1/1  130/2/1  103/3/1  101/4/1 
f  131/1/1  132/2/1  107/3/1  133/4/1 
f  132/1/1  134/2/1  108/3/1  107/4/1 
f  134/5/1  135/6/1  110/7/1  108/8/1 
f  135/17/1  136/18/1  111/19/1  110/20/1 
f  136/9/1  137/10/1  112/11/1  111/12/1 
f  137/5/1  138/6/1  113/7/1  112/8/1 
f  138/9/1  139/10/1  114/11/1  113/12/1 
f  139/5/1  140/6/1  115/7/1  114/8/1 
f  140/13/1  141/14/1  116/15/1  115/16/1 
f  141/17/1  142/18/1  117/19/1  116/20/1 
f  142/21/1  143/22/1  118/23/1  117/24/1 
f  143/25/1  144/26/1  119/27/1  118/28/1 
f  144/17/1  145/18/1  120/19/1  119/20/1 
f  145/21/1  146/22/1  121/23/1  120/24/1 
f  146/25/1  147/26/1  122/27/1  121/28/1 
f  147/17/1  148/18/1  123/19/1  122/20/1 
f  148/21/1  149/22/1  124/23/1  123/24/1 
f  149/9/1  150/10/1  125/11/1  124/12/1 
f  150/5/1  151/6/1  126/7/1  125/8/1 
f  151/9/1  152/10/1  127/11/1  126/12/1 
f  152/9/1  153/10/1  128/11/1  127/12/1 
f  153/5/1  154/6/1  129/7/1  128/8/1 
f  154/1/1  155/2/1  130/3/1  129/4/1 
f  156/1/1  157/2/1  131/3/1  158/4/1 
f  157/1/1  159/2/1  132/3/1  131/4/1 
f  159/5/1  160/6/1  134/7/1  132/8/1 
f  160/13/1  161/14/1  135/15/1  134/16/1 
f  161/9/1  162/10/1  136/11/1  135/12/1 
f  162/5/1  163/6/1  137/7/1  136/8/1 
f  163/13/1  164/14/1  138/15/1  137/16/1 
f  164/17/1  165/18/1  139/19/1  138/20/1 
f  165/21/1  166/22/1  140/23/1  139/24/1 
f  166/25/1  167/26/1  141/27/1  140/28/1 
f  167/9/1  168/10/1  142/11/1  141/12/1 
f  168/5/1  169/6/1  143/7/1  142/8/1 
f  169/13/1  170/14/1  144/15/1  143/16/1 
f  170/9/1  171/10/1  145/11/1  144/12/1 
f  171/5/1  172/6/1  146/7/1  145/8/1 
f  172/13/1  173/14/1  147/15/1  146/16/1 
f  173/17/1  174/18/1  148/19/1  147/20/1 
f  174/21/1  175/22/1  149/23/1  148/24/1 
f  175/25/1  176/26/1  150/27/1  149/28/1 
f  176/9/1  177/10/1  151/11/1  150/12/1 
f  177/9/1  178/10/1  152/11/1  151/12/1 
f  178/5/1  179/6/1  153/7/1  152/8/1 
f  179/13/1  180/14/1  154/15/1  153/16/1 
f  180/1/1  181/2/1  155/3/1  154/4/1 
f  182/1/1  183/2/1  156/3/1  184/4/1 
f  183/1/1  185/2/1  157/3/1  156/4/1 
f  185/5/1  186/6/1  159/7/1  157/8/1 
f  186/17/1  187/18/1  160/19/1  159/20/1 
f  187/21/1  188/22/1  161/23/1  160/24/1 
f  188/25/1  189/26/1  162/27/1  161/28/1 
f  189/17/1  190/18/1  163/19/1  162/20/1 
f  190/21/1  191/22/1  164/23/1  163/24/1 
f  191/9/1  192/10/1  165/11/1  164/12/1 
f  192/5/1  193/6/1  166/7/1  165/8/1 
f  193/13/1  194/14/1  167/15/1  166/16/1 
f  194/17/1  195/18/1  168/19/1  167/20/1 
f  195/21/1  196/22/1  169/23/1  168/24/1 
f  196/25/1  197/26/1  170/27/1  169/28/1 
f  197/17/1  198/18/1  171/19/1  170/20/1 
f  198/21/1  199/22/1  172/23/1  171/24/1 
f  199/25/1  200/26/1  173/27/1  172/28/1 
f  200/17/1  201/18/1  174/19/1  173/20/1 
f  201/21/1  202/22/1  175/23/1  174/24/1 
f  202/25/1  203/26/1  176/27/1  175/28/1 
f  203/9/1  204/10/1  177/11/1  176/12/1 
f  204/9/1  205/10/1  178/11/1  177/12/1 
f  205/5/1  206/6/1  179/7/1  178/8/1 
f  206/13/1  207/14/1  180/15/1  179/16/1 
f  207/1/1  208/2/1  181/3/1  180/4/1 
f  209/1/1  210/2/1  182/3/1  211/4/1 
f  210/1/1  212/2/1  183/3/1  182/4/1 
f  212/5/1  213/6/1  185/7/1  183/8/1 
f  213/13/1  214/14/1  186/15/1  185/16/1 
f  214/9/1  215/10/1  187/11/1  186/12/1 
f  215/5/1  216/6/1  188/7/1  187/8/1 
f  216/13/1  217/14/1  189/15/1  188/16/1 
f  217/9/1  218/10/1  190/11/1  189/12/1 
f  218/5/1  219/6/1  191/7/1  190/8/1 
f  219/17/1  220/18/1  192/19/1  191/20/1 
f  220/21/1  221/22/1  193/23/1  192/24/1 
f  221/25/1  222/26/1  194/27/1  193/28/1 
f  222/9/1  223/10/1  195/11/1  194/12/1 
f  223/5/1  224/6/1  196/7/1  195/8/1 
f  224/13/1  225/14/1  197/15/1  196/16/1 
f  225/9/1  226/10/1  198/11/1  197/12/1 
f  226/5/1  227/6/1  199/7/1  198/8/1 
f  227/13/1  228/14/1  200/15/1  199/16/1 
f  228/17/1  229/18/1  201/19/1  200/20/1 
f  229/21/1  230/22/1  202/23/1  201/24/1 
f  230/17/1  231/18/1  203/19/1  202/20/1 
f  231/9/1  232/10/1  204/11/1  203/12/1 
f  232/5/1  233/6/1  205/7/1  204/8/1 
f  233/9/1  234/10/1  206/11/1  205/12/1 
f  234/5/1  235/6/1  207/7/1  206/8/1 
f  235/1/1  236/2/1  208/3/1  207/4/1 
f  237/1/1  238/2/1  209/3/1  239/4/1 
f  238/1/1  240/2/1  210/3/1  209/4/1 
f  240/5/1  241/6/1  212/7/1  210/8/1 
f  241/17/1  242/18/1  213/19/1  212/20/1 
f  242/21/1  243/22/1  214/23/1  213/24/1 
f  243/25/1  244/26/1  215/27/1  214/28/1 
f  244/17/1  245/18/1  216/19/1  215/20/1 
f  245/21/1  246/22/1  217/23/1  216/24/1 
f  246/17/1  247/18/1  218/19/1  217/20/1 
f  247/21/1  248/22/1  219/23/1  218/24/1 
f  248/17/1  249/18/1  220/19/1  219/20/1 
f  249/21/1  250/22/1  221/23/1  220/24/1 
f  250/25/1  251/26/1  222/27/1  221/28/1 
f  251/17/1  252/18/1  223/19/1  222/20/1 
f  252/21/1  253/22/1  224/23/1  223/24/1 
f  253/25/1  254/26/1  225/27/1  224/28/1 
f  254/17/1  255/18/1  226/19/1  225/20/1 
f  255/21/1  256/22/1  227/23/1  226/24/1 
f  256/25/1  257/26/1  228/27/1  227/28/1 
f  257/17/1  258/18/1  229/19/1  228/20/1 
f  258/17/1  259/18/1  230/19/1  229/20/1 
f  259/9/1  260/10/1  231/11/1  230/12/1 
f  260/9/1  261/10/1  232/11/1  231/12/1 
f  261/5/1  262/6/1  233/7/1  232/8/1 
f  262/9/1  263/10/1  234/11/1  233/12/1 
f  263/5/1  264/6/1  235/7/1  234/8/1 
f  264/1/1  265/2/1  236/3/1  235/4/1 
f  266/9/1  267/10/1  238/11/1  237/12/1 
f  267/5/1  268/6/1  240/7/1  238/8/1 
f  268/13/1  269/14/1  241/15/1  240/16/1 
f  269/9/1  270/10/1  242/11/1  241/12/1 
f  270/5/1  271/6/1  243/7/1  242/8/1 
f  271/13/1  272/14/1  244/15/1  243/16/1 
f  272/9/1  273/10/1  245/11/1  244/12/1 
f  273/5/1  274/6/1  246/7/1  245/8/1 
f  274/9/1  275/10/1  247/11/1  246/12/1 
f  275/5/1  276/6/1  248/7/1  247/8/1 
f  276/9/1  277/10/1  249/11/1  248/12/1 
f  277/5/1  278/6/1  250/7/1  249/8/1 
f  278/13/1  279/14/1  251/15/1  250/16/1 
f  279/9/1  280/10/1  252/11/1  251/12/1 
f  280/5/1  281/6/1  253/7/1  252/8/1 
f  281/13/1  282/14/1  254/15/1  253/16/1 
f  282/9/1  283/10/1  255/11/1  254/12/1 
f  283/5/1  284/6/1  256/7/1  255/8/1 
f  284/13/1  285/14/1  257/15/1  256/16/1 
f  285/9/1  286/10/1  258/11/1  257/12/1 
f  286/9/1  287/10/1  259/11/1  258/12/1 
f  287/9/1  288/10/1  260/11/1  259/12/1 
f  288/5/1  289/6/1  261/7/1  260/8/1 
f  289/13/1  290/14/1  262/15/1  261/16/1 
f  290/9/1  291/10/1  263/11/1  262/12/1 
f  291/5/1  292/6/1  264/7/1  263/8/1 
f  292/1/1  293/2/1  265/3/1  264/4/1 
